<?xml version="1.0" encoding="UTF-8" standalone="no"?>
<svg
   id="Layer_2"
   width="911.36896"
   height="829.59943"
   viewBox="0 0 911.36896 829.59943"
   version="1.1"
   sodipodi:docname="intro-art.svg"
   inkscape:version="1.3.2 (091e20e, 2023-11-25, custom)"
   xml:space="preserve"
   xmlns:inkscape="http://www.inkscape.org/namespaces/inkscape"
   xmlns:sodipodi="http://sodipodi.sourceforge.net/DTD/sodipodi-0.dtd"
   xmlns="http://www.w3.org/2000/svg"
   xmlns:svg="http://www.w3.org/2000/svg"><defs
     id="defs26"><inkscape:path-effect
       effect="bspline"
       id="path-effect30"
       is_visible="true"
       lpeversion="1.3"
       weight="33.333333"
       steps="2"
       helper_size="0"
       apply_no_weight="true"
       apply_with_weight="true"
       only_selected="false"
       uniform="false" /><inkscape:path-effect
       effect="bspline"
       id="path-effect29"
       is_visible="true"
       lpeversion="1.3"
       weight="33.333333"
       steps="2"
       helper_size="0"
       apply_no_weight="true"
       apply_with_weight="true"
       only_selected="false"
       uniform="false" /><inkscape:path-effect
       effect="bspline"
       id="path-effect30-3"
       is_visible="true"
       lpeversion="1.3"
       weight="33.333333"
       steps="2"
       helper_size="0"
       apply_no_weight="true"
       apply_with_weight="true"
       only_selected="false"
       uniform="false" /></defs><sodipodi:namedview
     id="namedview26"
     pagecolor="#ffffff"
     bordercolor="#000000"
     borderopacity="0.25"
     inkscape:showpageshadow="2"
     inkscape:pageopacity="0.0"
     inkscape:pagecheckerboard="0"
     inkscape:deskcolor="#d1d1d1"
     inkscape:zoom="0.45926585"
     inkscape:cx="27.217351"
     inkscape:cy="654.30513"
     inkscape:window-width="1920"
     inkscape:window-height="1017"
     inkscape:window-x="1912"
     inkscape:window-y="-187"
     inkscape:window-maximized="1"
     inkscape:current-layer="g1"
     labelstyle="default"
     inkscape:clip-to-page="false" /><g
     id="g1"
     transform="translate(-3.5077459,-212.49767)"><g
       id="g2"
       transform="matrix(1.6537516,0,0,1.6537516,-335.84431,-386.91161)"
       style="stroke-width:12.0937;stroke-dasharray:none"><ellipse
         style="fill:#9dd5f1;fill-opacity:1;stroke:#f953b2;stroke-width:12.0937;stroke-linecap:round;stroke-dasharray:none"
         id="path1"
         cx="489.86014"
         cy="613.27771"
         rx="240.15767"
         ry="244.77661" /><path
         d="m 461.27806,629.20687 -30.1863,80.4969 c -0.9906,2.6415 -1.498,5.4397 -1.498,8.2609 v 0 c 0,12.9936 10.5334,23.527 23.527,23.527 h 76.5534 c 6.4333,0 11.6485,-5.2152 11.6485,-11.6485 v -8.3874 c 0,-6.4333 -5.2152,-11.6485 -11.6485,-11.6485 v 0 c -7.066,0 -12.5047,-6.2403 -11.5392,-13.2401 l 9.2911,-67.3604"
         style="fill:#f953b2;stroke-width:12.0937;stroke-dasharray:none"
         id="path1-6" /><path
         d="m 639.86606,661.68527 h -326.8761 c -7.0263,0 -12.8557,-5.4347 -13.3476,-12.4438 l -14.7773,-210.5763 c -0.5431,-7.7396 5.589,-14.3171 13.3476,-14.3171 h 324.9982 l 16.6552,237.3371 z"
         style="fill:#6966ed;stroke-width:12.0937;stroke-dasharray:none"
         id="path2-1" /><polygon
         points="138.1168,330.6614 121.4616,93.3243 460.812,93.3243 477.4673,330.6614 "
         style="fill:#f953b2;stroke-width:12.0937;stroke-dasharray:none"
         id="polygon2"
         transform="translate(183.21786,331.02387)" /><polygon
         points="157.1522,310.5363 143.3216,113.4494 441.0826,113.4494 454.9133,310.5363 "
         style="fill:#ffffff;stroke-width:12.0937;stroke-dasharray:none"
         id="polygon3"
         transform="translate(183.21786,331.02387)" /><polygon
         points="177.4068,282.7776 168.3044,153.0689 364.2697,153.0689 373.372,282.7776 "
         style="fill:#f4d13b;stroke-width:12.0937;stroke-dasharray:none"
         id="polygon4"
         transform="translate(183.21786,331.02387)" /><path
         d="m 703.01736,504.84847 h -100.437 c -15.669,0 -28.6689,-12.996 -29.7657,-29.7568 l -3.256,-49.754 c -1.2112,-18.5077 12.4637,-34.2366 29.7657,-34.2366 h 100.437 c 15.669,0 28.6689,12.996 29.7657,29.7568 l 3.256,49.754 c 1.2112,18.5077 -12.4637,34.2366 -29.7657,34.2366 z"
         style="fill:#6966ed;stroke-width:12.0937;stroke-dasharray:none"
         id="path4-6" /><path
         d="m 721.48616,794.39767 h -334.7179 c -0.9299,0 -1.8423,-0.2534 -2.639,-0.733 l -84.7248,-50.9994 c -4.4432,-2.6745 -2.5471,-9.5012 2.639,-9.5012 h 334.7178 c 0.9299,0 1.8423,0.2534 2.639,0.733 l 84.7248,50.9994 c 4.4432,2.6745 2.5471,9.5012 -2.639,9.5012 z"
         style="fill:#f4d13b;stroke-width:12.0937;stroke-dasharray:none"
         id="path5" /><path
         d="m 454.38636,782.68827 h 150.1683 c 4.0188,0 4.0255,-6.2457 0,-6.2457 h -150.1683 c -4.0188,0 -4.0255,6.2457 0,6.2457 z"
         style="fill:#ffffff;stroke-width:12.0937;stroke-dasharray:none"
         id="path7" /><path
         d="m 399.56306,772.20037 h 14.7785 c 1.6335,0 3.1984,-1.4364 3.1229,-3.1229 -0.0758,-1.692 -1.3721,-3.1229 -3.1229,-3.1229 -4.9262,0 -9.8523,0 -14.7785,0 -1.6335,0 -3.1984,1.4364 -3.1229,3.1229 0.0758,1.692 1.3721,3.1229 3.1229,3.1229 z"
         style="fill:#ffffff;stroke-width:12.0937;stroke-dasharray:none"
         id="path26" /><path
         d="m 413.86476,753.60807 h 15.2552 c 1.6335,0 3.1984,-1.4364 3.1229,-3.1229 -0.0758,-1.692 -1.3721,-3.1229 -3.1229,-3.1229 h -15.2552 c -1.6335,0 -3.1984,1.4364 -3.1229,3.1229 0.0758,1.692 1.3721,3.1229 3.1229,3.1229 z"
         style="fill:#ffffff;stroke-width:12.0937;stroke-dasharray:none"
         id="path27-7" /><path
         d="m 492.52436,759.80547 h 14.7785 c 1.6335,0 3.1984,-1.4364 3.1229,-3.1229 -0.0758,-1.692 -1.3721,-3.1229 -3.1229,-3.1229 h -14.7785 c -1.6335,0 -3.1984,1.4364 -3.1229,3.1229 0.0758,1.692 1.3721,3.1229 3.1229,3.1229 z"
         style="fill:#ffffff;stroke-width:12.0937;stroke-dasharray:none"
         id="path28" /><path
         d="m 615.04256,749.79427 h 4.2905 c 0.8007,0 1.6419,-0.3484 2.2082,-0.9147 0.3045,-0.2829 0.5198,-0.6179 0.6457,-1.005 0.1955,-0.3722 0.2852,-0.7732 0.269,-1.2032 -0.0362,-0.8076 -0.3015,-1.6453 -0.9147,-2.2082 -0.611,-0.5609 -1.3621,-0.9147 -2.2082,-0.9147 h -4.2905 c -0.8007,0 -1.6419,0.3484 -2.2082,0.9147 -0.3045,0.2829 -0.5198,0.6179 -0.6457,1.005 -0.1955,0.3722 -0.2852,0.7732 -0.269,1.2032 0.0362,0.8076 0.3015,1.6453 0.9147,2.2082 0.611,0.5609 1.3621,0.9147 2.2082,0.9147 z"
         style="fill:#ffffff;stroke-width:12.0937;stroke-dasharray:none"
         id="path29-5" /><path
         d="m 649.36676,766.95637 h 15.7319 c 1.6335,0 3.1984,-1.4364 3.1229,-3.1229 -0.0758,-1.692 -1.3721,-3.1229 -3.1229,-3.1229 h -15.7319 c -1.6335,0 -3.1984,1.4364 -3.1229,3.1229 0.0758,1.692 1.3721,3.1229 3.1229,3.1229 z"
         style="fill:#ffffff;stroke-width:12.0937;stroke-dasharray:none"
         id="path30" /><path
         d="m 389.34356,521.85067 h 107.0495 c 4.9488,0 9.9243,0.1504 14.8715,0 0.0723,-0.002 0.145,0 0.2173,0 4.0188,0 4.0255,-6.2457 0,-6.2457 h -107.0495 c -4.9488,0 -9.9243,-0.1504 -14.8715,0 -0.0723,0.002 -0.145,0 -0.2173,0 -4.0188,0 -4.0255,6.2457 0,6.2457 z"
         style="fill:#ffffff;stroke-width:12.0937;stroke-dasharray:none"
         id="path31" /><path
         d="m 370.60646,543.71067 h 126.5871 c 5.8275,0 11.6825,0.1656 17.5083,0 0.0832,-0.002 0.1667,0 0.25,0 4.0188,0 4.0255,-6.2457 0,-6.2457 h -126.5871 c -5.8275,0 -11.6825,-0.1656 -17.5083,0 -0.0832,0.002 -0.1667,0 -0.25,0 -4.0188,0 -4.0255,6.2457 0,6.2457 z"
         style="fill:#ffffff;stroke-width:12.0937;stroke-dasharray:none"
         id="path32" /><path
         d="m 373.38226,565.91767 h 126.5871 c 5.8275,0 11.6825,0.1656 17.5083,0 0.0832,-0.002 0.1667,0 0.25,0 4.0188,0 4.0255,-6.2457 0,-6.2457 h -126.5871 c -5.8275,0 -11.6825,-0.1656 -17.5083,0 -0.0832,0.002 -0.1667,0 -0.25,0 -4.0188,0 -4.0255,6.2457 0,6.2457 z"
         style="fill:#ffffff;stroke-width:12.0937;stroke-dasharray:none"
         id="path33" /><path
         d="m 373.38226,587.43067 h 88.8099 c 4.1005,0 8.2286,0.1395 12.3274,0 0.0605,-0.002 0.1214,0 0.182,0 4.0188,0 4.0255,-6.2457 0,-6.2457 h -88.8099 c -4.1005,0 -8.2286,-0.1395 -12.3274,0 -0.0605,0.002 -0.1214,0 -0.182,0 -4.0188,0 -4.0255,6.2457 0,6.2457 z"
         style="fill:#ffffff;stroke-width:12.0937;stroke-dasharray:none"
         id="path34" /><path
         d="m 622.09596,451.08267 c 6.7599,5.3732 13.5197,10.7464 20.2796,16.1197 0.9479,0.7535 1.8958,1.5069 2.8437,2.2604 2.1442,1.7044 4.4618,3.1787 7.3606,3.0489 2.6889,-0.1204 5.4898,-1.0027 7.3606,-3.0489 4.2806,-4.6819 8.5612,-9.3638 12.8417,-14.0457 6.8147,-7.4536 13.6294,-14.9071 20.4441,-22.3607 1.5534,-1.699 3.1067,-3.398 4.6601,-5.097 1.853,-2.0267 3.0489,-4.5676 3.0489,-7.3606 0,-2.5531 -1.134,-5.6028 -3.0489,-7.3606 -1.9838,-1.8211 -4.5883,-3.1731 -7.3606,-3.0489 -2.6889,0.1204 -5.4898,1.0027 -7.3606,3.0489 -4.2806,4.6819 -8.5612,9.3638 -12.8417,14.0457 -6.8147,7.4536 -13.6294,14.9071 -20.4441,22.3607 -1.5534,1.699 -3.1067,3.398 -4.6601,5.097 h 14.7213 c -6.7599,-5.3732 -13.5197,-10.7464 -20.2796,-16.1197 -0.9479,-0.7535 -1.8958,-1.5069 -2.8437,-2.2604 -2.2452,-1.7847 -4.3725,-3.0489 -7.3606,-3.0489 -2.5531,0 -5.6028,1.134 -7.3606,3.0489 -1.8211,1.9838 -3.1731,4.5883 -3.0489,7.3606 0.1153,2.5741 0.9365,5.6816 3.0489,7.3606 v 0 z"
         style="fill:#f4d13b;stroke-width:12.0937;stroke-dasharray:none"
         id="path35" /><path
         d="m 699.54736,819.21607 h -471.385 c -6.3654,0 -12.7444,-0.1211 -19.109,0 -0.2783,0.005 -0.5571,0 -0.8354,0 -4.0188,0 -4.0255,6.2457 0,6.2457 h 471.3849 c 6.3654,0 12.7444,0.1211 19.109,0 0.2783,-0.005 0.5571,0 0.8354,0 4.0188,0 4.0255,-6.2457 0,-6.2457 v 0 z"
         style="fill:#6966ed;stroke-width:12.0937;stroke-dasharray:none"
         id="path36" /><path
         d="m 239.67186,651.56727 c 2.7538,-2.2031 5.5077,-4.4061 8.2615,-6.6092 0.5843,-0.4674 0.9147,-1.4957 0.9147,-2.2082 0,-0.7659 -0.3402,-1.6809 -0.9147,-2.2082 -0.5951,-0.5463 -1.3765,-0.9519 -2.2082,-0.9147 l -0.8302,0.1116 c -0.529,0.1484 -0.9884,0.4161 -1.378,0.8031 -2.7538,2.2031 -5.5077,4.4061 -8.2615,6.6092 -0.5843,0.4674 -0.9147,1.4957 -0.9147,2.2082 0,0.7659 0.3402,1.6809 0.9147,2.2082 0.5951,0.5463 1.3765,0.9519 2.2082,0.9147 l 0.8302,-0.1116 c 0.529,-0.1484 0.9884,-0.4161 1.378,-0.8031 z"
         style="fill:#f953b2;stroke-width:12.0937;stroke-dasharray:none"
         id="path37" /><path
         d="m 267.76106,692.87487 c 2.2031,-2.7538 4.4061,-5.5077 6.6092,-8.2615 0.5365,-0.6706 0.9147,-1.3144 0.9147,-2.2082 0,-0.7659 -0.3402,-1.6809 -0.9147,-2.2082 -0.5951,-0.5463 -1.3765,-0.9519 -2.2082,-0.9147 -0.7738,0.0347 -1.7018,0.2817 -2.2082,0.9147 -2.2031,2.7538 -4.4061,5.5077 -6.6092,8.2615 -0.5365,0.6706 -0.9147,1.3144 -0.9147,2.2082 0,0.7659 0.3402,1.6809 0.9147,2.2082 0.5951,0.5463 1.3765,0.9519 2.2082,0.9147 0.7738,-0.0347 1.7018,-0.2817 2.2082,-0.9147 z"
         style="fill:#f953b2;stroke-width:12.0937;stroke-dasharray:none"
         id="path38" /><path
         d="m 323.20176,700.58057 v -8.2615 c 0,-1.6335 -1.4364,-3.1984 -3.1229,-3.1229 -1.692,0.0758 -3.1229,1.3721 -3.1229,3.1229 v 8.2615 c 0,1.6335 1.4364,3.1984 3.1229,3.1229 1.692,-0.0758 3.1229,-1.3721 3.1229,-3.1229 z"
         style="fill:#f953b2;stroke-width:12.0937;stroke-dasharray:none"
         id="path39" /><path
         d="m 749.65716,471.79197 c 2.1299,13.3212 -2.819,27.674 -12.7041,37.1369 h 4.4164 c -1.445,-1.4201 -2.0472,-3.3674 -1.7013,-5.1002 l -2.1811,2.1811 c -0.2402,0.0354 0.7426,-0.005 0.9143,-10e-4 -0.0201,-5e-4 0.5439,0.0331 0.2707,0.004 -0.3118,-0.033 0.3743,0.0674 0.432,0.0798 0.9915,0.2131 1.3838,0.3743 2.1425,0.8069 1.2638,0.7205 2.4709,1.8639 3.2516,3.037 2.1351,3.2084 2.3574,7.322 1.6045,11.2539 -0.7738,4.0412 -2.2564,8.2808 -3.8846,11.7752 -1.477,3.17 -3.3204,6.3256 -5.5116,8.7417 -1.3924,1.5353 -2.6038,2.6027 -4.2138,3.5745 -0.7245,0.4373 -1.7064,0.927 -2.1439,1.0888 -0.9776,0.3614 -1.9782,0.6225 -3.0034,0.8072 -1.6609,0.2993 -2.599,2.321 -2.1811,3.8415 0.4806,1.7488 2.1758,2.4813 3.8415,2.1811 8.8406,-1.5929 14.9039,-9.2107 18.5277,-16.9172 4.0901,-8.6982 8.2766,-20.8702 2.2571,-29.6501 -3.2118,-4.6847 -8.2354,-7.4904 -13.9639,-6.6457 -0.9838,0.1451 -1.9916,1.2318 -2.1811,2.1811 -0.814,4.0781 0.3126,8.2336 3.3075,11.177 1.2222,1.2012 3.187,1.1769 4.4164,0 11.5384,-11.0455 16.8215,-27.5082 14.3103,-43.2136 -0.2665,-1.6668 -2.3439,-2.5927 -3.8415,-2.1811 -1.7742,0.4876 -2.4484,2.1698 -2.1811,3.8415 v 0 z"
         style="fill:#f953b2;stroke-width:12.0937;stroke-dasharray:none"
         id="path40" /></g></g></svg>
